<svg width="14" height="14" viewBox="0 0 14 14" fill="none" xmlns="http://www.w3.org/2000/svg">
<g id="fastfood" clip-path="url(#clip0_76_72)">
<path id="Vector" d="M0.583374 12.8217C0.583374 13.1483 0.845874 13.4108 1.17254 13.4108H8.75004C9.07671 13.4108 9.33921 13.1483 9.33921 12.8217V12.25H0.583374V12.8217ZM4.95837 5.24417C2.77087 5.24417 0.583374 6.41667 0.583374 8.75H9.33337C9.33337 6.41667 7.14587 5.24417 4.95837 5.24417ZM2.11171 7.58333C2.75921 6.67917 4.13587 6.41083 4.95837 6.41083C5.78087 6.41083 7.15754 6.67917 7.80504 7.58333H2.11171ZM0.583374 9.91667H9.33337V11.0833H0.583374V9.91667ZM10.5 2.91667V0.583334H9.33337V2.91667H6.41671L6.55087 4.08333H12.1275L11.3109 12.25H10.5V13.4167H11.5034C11.9934 13.4167 12.3959 13.0375 12.4542 12.5592L13.4167 2.91667H10.5Z" fill="#323232"/>
</g>
<defs>
<clipPath id="clip0_76_72">
<rect width="14" height="14" fill="white"/>
</clipPath>
</defs>
</svg>
