<svg width="18" height="18" viewBox="0 0 18 18" fill="none" xmlns="http://www.w3.org/2000/svg">
    <g clip-path="url(#clip0_399_924)">
        <path d="M17.25 9.00003L15.42 6.91503L15.675 4.15503L12.9675 3.54003L11.55 1.15503L9 2.25003L6.45 1.15503L5.0325 3.54003L2.325 4.14753L2.58 6.90753L0.75 9.00003L2.58 11.085L2.325 13.8525L5.0325 14.4675L6.45 16.8525L9 15.75L11.55 16.845L12.9675 14.46L15.675 13.845L15.42 11.085L17.25 9.00003ZM13.8675 10.5825L14.0625 12.675L12.0075 13.14L10.935 14.9475L9 14.115L7.065 14.9475L5.9925 13.14L3.9375 12.675L4.1325 10.575L2.745 9.00003L4.1325 7.41003L3.9375 5.32503L5.9925 4.86753L7.065 3.06003L9 3.88503L10.935 3.05253L12.0075 4.86003L14.0625 5.32503L13.8675 7.41753L15.255 9.00003L13.8675 10.5825ZM8.25 11.25H9.75V12.75H8.25V11.25ZM8.25 5.25003H9.75V9.75003H8.25V5.25003Z" fill="#323232"/>
    </g>
    <defs>
        <clipPath id="clip0_399_924">
            <rect width="18" height="18" fill="white"/>
        </clipPath>
    </defs>
</svg>
