<svg width="18" height="18" viewBox="0 0 18 18" fill="none" xmlns="http://www.w3.org/2000/svg">
    <g clip-path="url(#clip0_390_7978)">
        <path d="M11.625 8.25C12.2463 8.25 12.75 7.74632 12.75 7.125C12.75 6.50368 12.2463 6 11.625 6C11.0037 6 10.5 6.50368 10.5 7.125C10.5 7.74632 11.0037 8.25 11.625 8.25Z" fill="#323232"/>
        <path d="M6.375 8.25C6.99632 8.25 7.5 7.74632 7.5 7.125C7.5 6.50368 6.99632 6 6.375 6C5.75368 6 5.25 6.50368 5.25 7.125C5.25 7.74632 5.75368 8.25 6.375 8.25Z" fill="#323232"/>
        <path d="M9 13.5C10.71 13.5 12.165 12.255 12.75 10.5H5.25C5.835 12.255 7.29 13.5 9 13.5Z" fill="#323232"/>
        <path d="M8.9925 1.5C4.8525 1.5 1.5 4.86 1.5 9C1.5 13.14 4.8525 16.5 8.9925 16.5C13.14 16.5 16.5 13.14 16.5 9C16.5 4.86 13.14 1.5 8.9925 1.5ZM9 15C5.685 15 3 12.315 3 9C3 5.685 5.685 3 9 3C12.315 3 15 5.685 15 9C15 12.315 12.315 15 9 15Z" fill="#323232"/>
    </g>
    <defs>
        <clipPath id="clip0_390_7978">
            <rect width="18" height="18" fill="white"/>
        </clipPath>
    </defs>
</svg>
